<svg version="1.2" xmlns="http://www.w3.org/2000/svg" viewBox="0 0 1136 880" width="1136" height="880">
	<title>discord-color-seeklogo</title>
	<style>
		.s0 { fill: #5865f2 } 
	</style>
	<g id="Layer 1">
		<g id="&lt;Clip Group&gt;">
			<g id="&lt;Group&gt;">
				<path id="&lt;Compound Path&gt;" fill-rule="evenodd" class="s0" d="m963.1 79.7c128.3 188.7 191.7 401.6 168 646.6-0.1 1-0.6 2-1.5 2.6-97.1 71.4-191.3 114.7-284.1 143.4-1.5 0.5-3.1-0.1-4-1.3-21.4-29.9-40.9-61.3-58-94.4-0.9-1.9 0-4.3 2-5 30.9-11.7 60.3-25.7 88.6-42.2 2.3-1.3 2.4-4.5 0.3-6.1-6-4.4-11.9-9.1-17.6-13.8-1.1-0.9-2.5-1-3.7-0.5-183.7 84.9-385 84.9-570.9 0-1.2-0.5-2.7-0.3-3.7 0.5-5.7 4.7-11.6 9.4-17.6 13.8-2.1 1.6-1.9 4.8 0.4 6.1 28.3 16.2 57.7 30.5 88.6 42.2 2 0.8 2.9 3.1 2 5-16.7 33.1-36.2 64.6-58.1 94.4-0.9 1.2-2.5 1.8-4 1.3-92.3-28.7-186.5-72-283.6-143.4-0.8-0.6-1.4-1.6-1.5-2.6-19.8-212 20.5-426.6 167.8-646.6 0.4-0.6 0.9-1.1 1.5-1.3 72.5-33.3 150.1-57.8 231.3-71.8 1.4-0.2 2.9 0.5 3.7 1.8 10 17.8 21.5 40.5 29.2 59.1 85.6-13 172.4-13 259.7 0 7.8-18.2 18.8-41.3 28.8-59.1 0.8-1.3 2.3-2 3.7-1.8 81.2 14.1 158.9 38.5 231.3 71.8 0.6 0.2 1.1 0.7 1.4 1.3zm-481.4 403c0.9-62.6-44.8-114.5-102.1-114.5-56.9 0-102.1 51.4-102.1 114.5 0 63.1 46.1 114.5 102.1 114.5 56.9 0 102.1-51.4 102.1-114.5zm377.5 0c0.9-62.6-44.8-114.5-102.1-114.5-56.9 0-102.1 51.4-102.1 114.5 0 63.1 46.1 114.5 102.1 114.5 57.3 0 102.1-51.4 102.1-114.5z"/>
			</g>
		</g>
	</g>
</svg>